<?xml version="1.0" encoding="UTF-8"?>
<svg xmlns="http://www.w3.org/2000/svg" xmlns:xlink="http://www.w3.org/1999/xlink" width="280px" height="91px" viewBox="0 0 279 91" version="1.1">
<defs>
<filter id="alpha" filterUnits="objectBoundingBox" x="0%" y="0%" width="100%" height="100%">
  <feColorMatrix type="matrix" in="SourceGraphic" values="0 0 0 0 1 0 0 0 0 1 0 0 0 0 1 0 0 0 1 0"/>
</filter>
<mask id="mask0">
  <g filter="url(#alpha)">
<rect x="0" y="0" width="279" height="91" style="fill:rgb(0%,0%,0%);fill-opacity:0.980392;stroke:none;"/>
  </g>
</mask>
<clipPath id="clip1">
  <rect x="0" y="0" width="279" height="91"/>
</clipPath>
<g id="surface5" clip-path="url(#clip1)">
<path style=" stroke:none;fill-rule:evenodd;fill:rgb(89.411765%,9.411765%,25.490196%);fill-opacity:1;" d="M 41.996094 22.714844 C 45.707031 22.515625 48.097656 24.191406 49.167969 27.746094 C 49.589844 31.871094 47.800781 34.410156 43.808594 35.367188 C 40.144531 35.589844 37.800781 33.9375 36.773438 30.402344 C 36.308594 26.292969 38.050781 23.730469 41.996094 22.714844 Z M 41.996094 22.714844 "/>
</g>
<mask id="mask1">
  <g filter="url(#alpha)">
<rect x="0" y="0" width="279" height="91" style="fill:rgb(0%,0%,0%);fill-opacity:0.980392;stroke:none;"/>
  </g>
</mask>
<clipPath id="clip2">
  <rect x="0" y="0" width="279" height="91"/>
</clipPath>
<g id="surface8" clip-path="url(#clip2)">
<path style=" stroke:none;fill-rule:evenodd;fill:rgb(89.411765%,9.411765%,25.490196%);fill-opacity:1;" d="M 58.152344 22.714844 C 63.261719 22.738281 65.652344 25.300781 65.328125 30.402344 C 63.992188 34.484375 61.230469 36.046875 57.039062 35.085938 C 53.453125 33.40625 52.175781 30.632812 53.210938 26.769531 C 54.179688 24.558594 55.828125 23.207031 58.152344 22.714844 Z M 58.152344 22.714844 "/>
</g>
<mask id="mask2">
  <g filter="url(#alpha)">
<rect x="0" y="0" width="279" height="91" style="fill:rgb(0%,0%,0%);fill-opacity:0.976471;stroke:none;"/>
  </g>
</mask>
<clipPath id="clip3">
  <rect x="0" y="0" width="279" height="91"/>
</clipPath>
<g id="surface11" clip-path="url(#clip3)">
<path style=" stroke:none;fill-rule:evenodd;fill:rgb(89.411765%,9.411765%,25.490196%);fill-opacity:1;" d="M 28.066406 30.824219 C 31.398438 30.652344 33.695312 32.097656 34.960938 35.15625 C 35.761719 38.152344 34.949219 40.601562 32.523438 42.496094 C 29.953125 43.957031 27.445312 43.867188 25.003906 42.214844 C 22.941406 40.394531 22.222656 38.132812 22.84375 35.433594 C 23.703125 32.871094 25.445312 31.332031 28.066406 30.824219 Z M 28.066406 30.824219 "/>
</g>
<mask id="mask3">
  <g filter="url(#alpha)">
<rect x="0" y="0" width="279" height="91" style="fill:rgb(0%,0%,0%);fill-opacity:0.976471;stroke:none;"/>
  </g>
</mask>
<clipPath id="clip4">
  <rect x="0" y="0" width="279" height="91"/>
</clipPath>
<g id="surface14" clip-path="url(#clip4)">
<path style=" stroke:none;fill-rule:evenodd;fill:rgb(89.411765%,9.411765%,25.490196%);fill-opacity:1;" d="M 72.222656 30.824219 C 76.046875 30.675781 78.4375 32.449219 79.394531 36.132812 C 79.753906 39.167969 78.617188 41.425781 75.984375 42.914062 C 72.582031 44.214844 69.820312 43.398438 67.695312 40.46875 C 66.378906 37.882812 66.5625 35.414062 68.253906 33.058594 C 69.351562 31.890625 70.675781 31.144531 72.222656 30.824219 Z M 72.222656 30.824219 "/>
</g>
<mask id="mask4">
  <g filter="url(#alpha)">
<rect x="0" y="0" width="279" height="91" style="fill:rgb(0%,0%,0%);fill-opacity:0.972549;stroke:none;"/>
  </g>
</mask>
<clipPath id="clip5">
  <rect x="0" y="0" width="279" height="91"/>
</clipPath>
<g id="surface17" clip-path="url(#clip5)">
<path style=" stroke:none;fill-rule:evenodd;fill:rgb(10.980392%,11.372549%,10.196078%);fill-opacity:1;" d="M 184.910156 35.714844 C 190.578125 35.46875 194.636719 37.894531 197.097656 42.984375 C 198.964844 48.46875 197.734375 53.105469 193.40625 56.890625 C 188.339844 60.257812 183.371094 60.117188 178.5 56.472656 C 174.882812 53.015625 173.699219 48.84375 174.949219 43.960938 C 176.664062 39.234375 179.984375 36.484375 184.910156 35.714844 Z M 185.1875 40.46875 C 189.265625 40.289062 191.890625 42.152344 193.058594 46.058594 C 193.542969 49.816406 192.078125 52.496094 188.667969 54.097656 C 185.042969 55.152344 182.1875 54.101562 180.101562 50.953125 C 178.382812 47.136719 179.195312 43.992188 182.539062 41.515625 C 183.390625 41.039062 184.273438 40.6875 185.1875 40.46875 Z M 185.1875 40.46875 "/>
</g>
<mask id="mask5">
  <g filter="url(#alpha)">
<rect x="0" y="0" width="279" height="91" style="fill:rgb(0%,0%,0%);fill-opacity:0.972549;stroke:none;"/>
  </g>
</mask>
<clipPath id="clip6">
  <rect x="0" y="0" width="279" height="91"/>
</clipPath>
<g id="surface20" clip-path="url(#clip6)">
<path style=" stroke:none;fill-rule:evenodd;fill:rgb(10.980392%,11.372549%,10.196078%);fill-opacity:1;" d="M 243.273438 35.714844 C 248.941406 35.46875 253 37.894531 255.460938 42.984375 C 257.398438 48.925781 255.890625 53.746094 250.933594 57.453125 C 246.03125 60.1875 241.339844 59.859375 236.863281 56.472656 C 233.226562 53.019531 232.042969 48.851562 233.3125 43.960938 C 235.027344 39.234375 238.347656 36.484375 243.273438 35.714844 Z M 243.550781 40.46875 C 247.355469 40.257812 249.933594 41.9375 251.28125 45.5 C 252.078125 49.472656 250.660156 52.335938 247.03125 54.097656 C 243.402344 55.152344 240.546875 54.101562 238.464844 50.953125 C 236.746094 47.136719 237.558594 43.992188 240.902344 41.515625 C 241.753906 41.039062 242.636719 40.6875 243.550781 40.46875 Z M 243.550781 40.46875 "/>
</g>
<mask id="mask6">
  <g filter="url(#alpha)">
<rect x="0" y="0" width="279" height="91" style="fill:rgb(0%,0%,0%);fill-opacity:0.972549;stroke:none;"/>
  </g>
</mask>
<clipPath id="clip7">
  <rect x="0" y="0" width="279" height="91"/>
</clipPath>
<g id="surface23" clip-path="url(#clip7)">
<path style=" stroke:none;fill-rule:evenodd;fill:rgb(10.980392%,11.372549%,10.196078%);fill-opacity:1;" d="M 103.421875 36.132812 C 104.957031 36.089844 106.492188 36.132812 108.019531 36.273438 C 110.851562 43.730469 113.683594 51.183594 116.515625 58.640625 C 114.753906 58.824219 112.988281 58.824219 111.222656 58.640625 C 109.390625 53.5625 107.554688 48.480469 105.722656 43.402344 C 103.839844 48.464844 101.980469 53.546875 100.148438 58.640625 C 98.417969 58.800781 96.679688 58.824219 94.925781 58.710938 C 97.773438 51.1875 100.605469 43.664062 103.421875 36.132812 Z M 103.421875 36.132812 "/>
</g>
<mask id="mask7">
  <g filter="url(#alpha)">
<rect x="0" y="0" width="279" height="91" style="fill:rgb(0%,0%,0%);fill-opacity:0.976471;stroke:none;"/>
  </g>
</mask>
<clipPath id="clip8">
  <rect x="0" y="0" width="279" height="91"/>
</clipPath>
<g id="surface26" clip-path="url(#clip8)">
<path style=" stroke:none;fill-rule:evenodd;fill:rgb(10.980392%,11.372549%,10.196078%);fill-opacity:1;" d="M 123.761719 36.132812 C 125.386719 36.132812 127.011719 36.132812 128.636719 36.132812 C 128.570312 41.265625 128.640625 46.390625 128.84375 51.511719 C 129.882812 54.046875 131.714844 54.957031 134.347656 54.238281 C 135.667969 53.65625 136.480469 52.652344 136.785156 51.230469 C 136.988281 46.203125 137.054688 41.171875 136.992188 36.132812 C 138.570312 36.132812 140.152344 36.132812 141.730469 36.132812 C 141.753906 41.351562 141.730469 46.570312 141.660156 51.789062 C 141.210938 55.363281 139.28125 57.714844 135.878906 58.847656 C 132.203125 59.890625 128.929688 59.167969 126.058594 56.683594 C 124.691406 55.132812 123.949219 53.316406 123.828125 51.230469 C 123.761719 46.199219 123.738281 41.167969 123.761719 36.132812 Z M 123.761719 36.132812 "/>
</g>
<mask id="mask8">
  <g filter="url(#alpha)">
<rect x="0" y="0" width="279" height="91" style="fill:rgb(0%,0%,0%);fill-opacity:0.972549;stroke:none;"/>
  </g>
</mask>
<clipPath id="clip9">
  <rect x="0" y="0" width="279" height="91"/>
</clipPath>
<g id="surface29" clip-path="url(#clip9)">
<path style=" stroke:none;fill-rule:evenodd;fill:rgb(10.980392%,11.372549%,10.196078%);fill-opacity:1;" d="M 150.644531 36.132812 C 156.398438 36.132812 162.160156 36.132812 167.914062 36.132812 C 167.914062 37.71875 167.914062 39.304688 167.914062 40.886719 C 165.824219 40.886719 163.738281 40.886719 161.648438 40.886719 C 161.648438 46.851562 161.648438 52.816406 161.648438 58.78125 C 160.070312 58.78125 158.488281 58.78125 156.910156 58.78125 C 156.910156 52.816406 156.910156 46.851562 156.910156 40.886719 C 154.820312 40.886719 152.734375 40.886719 150.644531 40.886719 C 150.644531 39.304688 150.644531 37.71875 150.644531 36.132812 Z M 150.644531 36.132812 "/>
</g>
<mask id="mask9">
  <g filter="url(#alpha)">
<rect x="0" y="0" width="279" height="91" style="fill:rgb(0%,0%,0%);fill-opacity:0.976471;stroke:none;"/>
  </g>
</mask>
<clipPath id="clip10">
  <rect x="0" y="0" width="279" height="91"/>
</clipPath>
<g id="surface32" clip-path="url(#clip10)">
<path style=" stroke:none;fill-rule:evenodd;fill:rgb(10.980392%,11.372549%,10.196078%);fill-opacity:1;" d="M 206.777344 36.132812 C 210.960938 36.074219 215.140625 36.144531 219.3125 36.34375 C 222.046875 36.988281 223.695312 38.691406 224.257812 41.445312 C 224.921875 44.90625 223.785156 47.539062 220.847656 49.34375 C 222.171875 52.449219 223.519531 55.550781 224.886719 58.640625 C 223.074219 58.824219 221.265625 58.824219 219.453125 58.640625 C 217.558594 54.148438 215.746094 49.628906 214.019531 45.082031 C 215.367188 45.105469 216.714844 45.082031 218.058594 45.011719 C 219.632812 44.367188 220.027344 43.273438 219.242188 41.726562 C 218.804688 41.28125 218.269531 41.027344 217.640625 40.957031 C 215.601562 40.886719 213.558594 40.863281 211.511719 40.886719 C 211.511719 46.851562 211.511719 52.816406 211.511719 58.78125 C 209.933594 58.78125 208.355469 58.78125 206.777344 58.78125 C 206.777344 51.230469 206.777344 43.683594 206.777344 36.132812 Z M 206.777344 36.132812 "/>
</g>
<mask id="mask10">
  <g filter="url(#alpha)">
<rect x="0" y="0" width="279" height="91" style="fill:rgb(0%,0%,0%);fill-opacity:0.992157;stroke:none;"/>
  </g>
</mask>
<clipPath id="clip11">
  <rect x="0" y="0" width="279" height="91"/>
</clipPath>
<g id="surface35" clip-path="url(#clip11)">
<path style=" stroke:none;fill-rule:evenodd;fill:rgb(89.411765%,9.411765%,25.490196%);fill-opacity:1;" d="M 49.378906 40.46875 C 56.226562 40.09375 61.449219 42.796875 65.050781 48.574219 C 67.695312 53.679688 67.511719 58.664062 64.492188 63.53125 C 61.972656 66.976562 58.605469 68.398438 54.394531 67.796875 C 53.121094 67.378906 52.003906 66.703125 51.050781 65.769531 C 48.675781 67.984375 45.9375 68.566406 42.832031 67.515625 C 38.636719 65.679688 36.152344 62.488281 35.378906 57.941406 C 34.746094 51.503906 37.089844 46.496094 42.414062 42.914062 C 44.578125 41.605469 46.902344 40.792969 49.378906 40.46875 Z M 49.378906 40.46875 "/>
</g>
</defs>
<g id="surface1">
<use xlink:href="#surface5" mask="url(#mask0)"/>
<use xlink:href="#surface8" mask="url(#mask1)"/>
<use xlink:href="#surface11" mask="url(#mask2)"/>
<use xlink:href="#surface14" mask="url(#mask3)"/>
<use xlink:href="#surface17" mask="url(#mask4)"/>
<use xlink:href="#surface20" mask="url(#mask5)"/>
<use xlink:href="#surface23" mask="url(#mask6)"/>
<use xlink:href="#surface26" mask="url(#mask7)"/>
<use xlink:href="#surface29" mask="url(#mask8)"/>
<use xlink:href="#surface32" mask="url(#mask9)"/>
<use xlink:href="#surface35" mask="url(#mask10)"/>
</g>
</svg>
