<?xml version="1.0" encoding="UTF-8"?>
<!DOCTYPE svg PUBLIC "-//W3C//DTD SVG 1.1//EN" "http://www.w3.org/Graphics/SVG/1.1/DTD/svg11.dtd">
<svg xmlns="http://www.w3.org/2000/svg" version="1.1" width="2003px" height="651px" style="shape-rendering:geometricPrecision; text-rendering:geometricPrecision; image-rendering:optimizeQuality; fill-rule:evenodd; clip-rule:evenodd" xmlns:xlink="http://www.w3.org/1999/xlink">
<g><path style="opacity:0.98" fill="#e41841" d="M 301.5,162.5 C 328.142,161.063 345.309,173.063 353,198.5C 356.017,227.992 343.184,246.158 314.5,253C 288.213,254.607 271.379,242.774 264,217.5C 260.672,188.107 273.172,169.773 301.5,162.5 Z"/></g>
<g><path style="opacity:0.98" fill="#e41841" d="M 417.5,162.5 C 454.157,162.656 471.324,180.989 469,217.5C 459.424,246.708 439.591,257.875 409.5,251C 383.742,238.977 374.575,219.144 382,191.5C 388.975,175.675 400.808,166.008 417.5,162.5 Z"/></g>
<g><path style="opacity:0.978" fill="#e41841" d="M 201.5,220.5 C 225.414,219.286 241.914,229.619 251,251.5C 256.74,272.947 250.907,290.447 233.5,304C 215.03,314.475 197.03,313.808 179.5,302C 164.715,288.976 159.548,272.81 164,253.5C 170.183,235.141 182.683,224.141 201.5,220.5 Z"/></g>
<g><path style="opacity:0.978" fill="#e41841" d="M 518.5,220.5 C 545.962,219.46 563.129,232.126 570,258.5C 572.572,280.19 564.405,296.357 545.5,307C 521.082,316.302 501.249,310.468 486,289.5C 476.537,271.006 477.87,253.34 490,236.5C 497.889,228.143 507.389,222.809 518.5,220.5 Z"/></g>
<g><path style="opacity:0.972" fill="#1c1d1a" d="M 1327.5,255.5 C 1368.19,253.75 1397.35,271.083 1415,307.5C 1428.4,346.737 1419.57,379.904 1388.5,407C 1352.13,431.063 1316.47,430.063 1281.5,404C 1255.52,379.264 1247.02,349.431 1256,314.5C 1268.31,280.674 1292.14,261.008 1327.5,255.5 Z M 1329.5,289.5 C 1358.78,288.215 1377.62,301.548 1386,329.5C 1389.48,356.374 1378.98,375.541 1354.5,387C 1328.45,394.539 1307.95,387.039 1293,364.5C 1280.66,337.201 1286.49,314.701 1310.5,297C 1316.6,293.583 1322.94,291.083 1329.5,289.5 Z"/></g>
<g><path style="opacity:0.972" fill="#1c1d1a" d="M 1746.5,255.5 C 1787.19,253.75 1816.35,271.083 1834,307.5C 1847.93,349.997 1837.09,384.497 1801.5,411C 1766.3,430.57 1732.64,428.237 1700.5,404C 1674.38,379.299 1665.88,349.465 1675,314.5C 1687.31,280.674 1711.14,261.008 1746.5,255.5 Z M 1748.5,289.5 C 1775.82,288.004 1794.32,300.004 1804,325.5C 1809.71,353.912 1799.54,374.412 1773.5,387C 1747.45,394.539 1726.95,387.039 1712,364.5C 1699.66,337.201 1705.49,314.701 1729.5,297C 1735.6,293.583 1741.94,291.083 1748.5,289.5 Z"/></g>
<g><path style="opacity:0.972" fill="#1c1d1a" d="M 742.5,258.5 C 753.52,258.168 764.52,258.501 775.5,259.5C 795.833,312.833 816.167,366.167 836.5,419.5C 823.833,420.833 811.167,420.833 798.5,419.5C 785.333,383.167 772.167,346.833 759,310.5C 745.48,346.723 732.147,383.056 719,419.5C 706.576,420.655 694.076,420.821 681.5,420C 701.935,366.194 722.268,312.36 742.5,258.5 Z"/></g>
<g><path style="opacity:0.976" fill="#1c1d1a" d="M 888.5,258.5 C 900.167,258.5 911.833,258.5 923.5,258.5C 923.032,295.207 923.532,331.874 925,368.5C 932.453,386.643 945.62,393.143 964.5,388C 973.993,383.838 979.826,376.671 982,366.5C 983.454,330.531 983.954,294.531 983.5,258.5C 994.833,258.5 1006.17,258.5 1017.5,258.5C 1017.67,295.835 1017.5,333.168 1017,370.5C 1013.77,396.062 999.937,412.895 975.5,421C 949.109,428.457 925.609,423.29 905,405.5C 895.189,394.414 889.855,381.414 889,366.5C 888.5,330.502 888.333,294.502 888.5,258.5 Z"/></g>
<g><path style="opacity:0.972" fill="#1c1d1a" d="M 1081.5,258.5 C 1122.83,258.5 1164.17,258.5 1205.5,258.5C 1205.5,269.833 1205.5,281.167 1205.5,292.5C 1190.5,292.5 1175.5,292.5 1160.5,292.5C 1160.5,335.167 1160.5,377.833 1160.5,420.5C 1149.17,420.5 1137.83,420.5 1126.5,420.5C 1126.5,377.833 1126.5,335.167 1126.5,292.5C 1111.5,292.5 1096.5,292.5 1081.5,292.5C 1081.5,281.167 1081.5,269.833 1081.5,258.5 Z"/></g>
<g><path style="opacity:0.976" fill="#1c1d1a" d="M 1484.5,258.5 C 1514.53,258.065 1544.53,258.565 1574.5,260C 1594.11,264.614 1605.95,276.78 1610,296.5C 1614.77,321.251 1606.6,340.084 1585.5,353C 1595.03,375.225 1604.7,397.392 1614.5,419.5C 1601.5,420.833 1588.5,420.833 1575.5,419.5C 1561.9,387.37 1548.9,355.037 1536.5,322.5C 1546.17,322.666 1555.84,322.5 1565.5,322C 1576.79,317.397 1579.63,309.564 1574,298.5C 1570.85,295.333 1567.01,293.499 1562.5,293C 1547.84,292.5 1533.17,292.333 1518.5,292.5C 1518.5,335.167 1518.5,377.833 1518.5,420.5C 1507.17,420.5 1495.83,420.5 1484.5,420.5C 1484.5,366.5 1484.5,312.5 1484.5,258.5 Z"/></g>
<g><path style="opacity:0.991" fill="#e41841" d="M 354.5,289.5 C 403.669,286.831 441.169,306.164 467,347.5C 486.009,384.017 484.676,419.684 463,454.5C 444.905,479.132 420.738,489.298 390.5,485C 381.358,482.018 373.358,477.185 366.5,470.5C 349.452,486.344 329.786,490.511 307.5,483C 277.388,469.874 259.555,447.041 254,414.5C 249.446,368.449 266.279,332.616 304.5,307C 320.047,297.653 336.713,291.819 354.5,289.5 Z"/></g>
</svg>
