<?xml version="1.0" encoding="UTF-8"?>
<svg xmlns="http://www.w3.org/2000/svg" xmlns:xlink="http://www.w3.org/1999/xlink" width="280px" height="56px" viewBox="0 0 281 56" version="1.1">
<defs>
<filter id="alpha" filterUnits="objectBoundingBox" x="0%" y="0%" width="100%" height="100%">
  <feColorMatrix type="matrix" in="SourceGraphic" values="0 0 0 0 1 0 0 0 0 1 0 0 0 0 1 0 0 0 1 0"/>
</filter>
<mask id="mask0">
  <g filter="url(#alpha)">
<rect x="0" y="0" width="281" height="56" style="fill:rgb(0%,0%,0%);fill-opacity:0.988235;stroke:none;"/>
  </g>
</mask>
<clipPath id="clip1">
  <rect x="0" y="0" width="281" height="56"/>
</clipPath>
<g id="surface5" clip-path="url(#clip1)">
<path style=" stroke:none;fill-rule:evenodd;fill:rgb(89.411765%,9.411765%,25.490196%);fill-opacity:1;" d="M 23.777344 1.085938 C 28.222656 0.847656 31.089844 2.851562 32.371094 7.105469 C 32.875 12.035156 30.734375 15.070312 25.949219 16.214844 C 21.5625 16.484375 18.753906 14.503906 17.519531 10.28125 C 16.964844 5.367188 19.050781 2.300781 23.777344 1.085938 Z M 23.777344 1.085938 "/>
</g>
<mask id="mask1">
  <g filter="url(#alpha)">
<rect x="0" y="0" width="281" height="56" style="fill:rgb(0%,0%,0%);fill-opacity:0.988235;stroke:none;"/>
  </g>
</mask>
<clipPath id="clip2">
  <rect x="0" y="0" width="281" height="56"/>
</clipPath>
<g id="surface8" clip-path="url(#clip2)">
<path style=" stroke:none;fill-rule:evenodd;fill:rgb(89.411765%,9.411765%,25.490196%);fill-opacity:1;" d="M 43.132812 1.085938 C 49.25 1.113281 52.117188 4.175781 51.726562 10.28125 C 50.128906 15.164062 46.820312 17.03125 41.800781 15.878906 C 37.5 13.871094 35.972656 10.554688 37.210938 5.933594 C 38.375 3.289062 40.347656 1.671875 43.132812 1.085938 Z M 43.132812 1.085938 "/>
</g>
<mask id="mask2">
  <g filter="url(#alpha)">
<rect x="0" y="0" width="281" height="56" style="fill:rgb(0%,0%,0%);fill-opacity:0.988235;stroke:none;"/>
  </g>
</mask>
<clipPath id="clip3">
  <rect x="0" y="0" width="281" height="56"/>
</clipPath>
<g id="surface11" clip-path="url(#clip3)">
<path style=" stroke:none;fill-rule:evenodd;fill:rgb(89.411765%,9.411765%,25.490196%);fill-opacity:1;" d="M 7.089844 10.78125 C 11.082031 10.578125 13.835938 12.304688 15.351562 15.964844 C 16.308594 19.550781 15.335938 22.476562 12.429688 24.742188 C 9.347656 26.492188 6.347656 26.378906 3.421875 24.40625 C 0.953125 22.230469 0.0898438 19.527344 0.835938 16.296875 C 1.867188 13.230469 3.953125 11.390625 7.089844 10.78125 Z M 7.089844 10.78125 "/>
</g>
<mask id="mask3">
  <g filter="url(#alpha)">
<rect x="0" y="0" width="281" height="56" style="fill:rgb(0%,0%,0%);fill-opacity:0.988235;stroke:none;"/>
  </g>
</mask>
<clipPath id="clip4">
  <rect x="0" y="0" width="281" height="56"/>
</clipPath>
<g id="surface14" clip-path="url(#clip4)">
<path style=" stroke:none;fill-rule:evenodd;fill:rgb(89.411765%,9.411765%,25.490196%);fill-opacity:1;" d="M 59.988281 10.78125 C 64.570312 10.609375 67.433594 12.726562 68.582031 17.132812 C 69.011719 20.761719 67.648438 23.460938 64.492188 25.242188 C 60.417969 26.796875 57.109375 25.820312 54.566406 22.316406 C 52.984375 19.226562 53.207031 16.273438 55.230469 13.457031 C 56.546875 12.058594 58.132812 11.167969 59.988281 10.78125 Z M 59.988281 10.78125 "/>
</g>
<mask id="mask4">
  <g filter="url(#alpha)">
<rect x="0" y="0" width="281" height="56" style="fill:rgb(0%,0%,0%);fill-opacity:0.980392;stroke:none;"/>
  </g>
</mask>
<clipPath id="clip5">
  <rect x="0" y="0" width="281" height="56"/>
</clipPath>
<g id="surface17" clip-path="url(#clip5)">
<path style=" stroke:none;fill-rule:evenodd;fill:rgb(11.372549%,11.372549%,10.588235%);fill-opacity:1;" d="M 194.980469 16.632812 C 201.769531 16.339844 206.636719 19.238281 209.582031 25.324219 C 211.816406 31.882812 210.34375 37.429688 205.160156 41.957031 C 199.089844 45.980469 193.140625 45.8125 187.304688 41.457031 C 182.96875 37.320312 181.550781 32.335938 183.050781 26.496094 C 185.105469 20.839844 189.082031 17.554688 194.980469 16.632812 Z M 195.316406 22.316406 C 200.199219 22.101562 203.34375 24.332031 204.742188 29.003906 C 205.324219 33.496094 203.570312 36.699219 199.488281 38.613281 C 195.140625 39.875 191.71875 38.621094 189.222656 34.855469 C 187.164062 30.289062 188.136719 26.527344 192.144531 23.570312 C 193.164062 23 194.21875 22.582031 195.316406 22.316406 Z M 195.316406 22.316406 "/>
</g>
<mask id="mask5">
  <g filter="url(#alpha)">
<rect x="0" y="0" width="281" height="56" style="fill:rgb(0%,0%,0%);fill-opacity:0.980392;stroke:none;"/>
  </g>
</mask>
<clipPath id="clip6">
  <rect x="0" y="0" width="281" height="56"/>
</clipPath>
<g id="surface20" clip-path="url(#clip6)">
<path style=" stroke:none;fill-rule:evenodd;fill:rgb(11.372549%,11.372549%,10.588235%);fill-opacity:1;" d="M 264.898438 16.632812 C 271.6875 16.339844 276.554688 19.238281 279.5 25.324219 C 281.824219 32.429688 280.015625 38.195312 274.074219 42.625 C 268.203125 45.898438 262.585938 45.507812 257.222656 41.457031 C 252.863281 37.328125 251.445312 32.339844 252.964844 26.496094 C 255.019531 20.839844 258.996094 17.554688 264.898438 16.632812 Z M 265.230469 22.316406 C 269.789062 22.066406 272.878906 24.074219 274.492188 28.335938 C 275.445312 33.082031 273.75 36.511719 269.402344 38.613281 C 265.054688 39.875 261.636719 38.621094 259.140625 34.855469 C 257.082031 30.289062 258.054688 26.527344 262.0625 23.570312 C 263.078125 23 264.136719 22.582031 265.230469 22.316406 Z M 265.230469 22.316406 "/>
</g>
<mask id="mask6">
  <g filter="url(#alpha)">
<rect x="0" y="0" width="281" height="56" style="fill:rgb(0%,0%,0%);fill-opacity:0.980392;stroke:none;"/>
  </g>
</mask>
<clipPath id="clip7">
  <rect x="0" y="0" width="281" height="56"/>
</clipPath>
<g id="surface23" clip-path="url(#clip7)">
<path style=" stroke:none;fill-rule:evenodd;fill:rgb(11.372549%,11.372549%,10.588235%);fill-opacity:1;" d="M 97.367188 17.132812 C 99.203125 17.078125 101.039062 17.132812 102.871094 17.300781 C 106.265625 26.21875 109.65625 35.132812 113.050781 44.046875 C 110.9375 44.269531 108.824219 44.269531 106.710938 44.046875 C 104.511719 37.972656 102.316406 31.902344 100.117188 25.828125 C 97.863281 31.882812 95.636719 37.957031 93.445312 44.046875 C 91.371094 44.242188 89.285156 44.269531 87.1875 44.132812 C 90.597656 35.136719 93.988281 26.136719 97.367188 17.132812 Z M 97.367188 17.132812 "/>
</g>
<mask id="mask7">
  <g filter="url(#alpha)">
<rect x="0" y="0" width="281" height="56" style="fill:rgb(0%,0%,0%);fill-opacity:0.980392;stroke:none;"/>
  </g>
</mask>
<clipPath id="clip8">
  <rect x="0" y="0" width="281" height="56"/>
</clipPath>
<g id="surface26" clip-path="url(#clip8)">
<path style=" stroke:none;fill-rule:evenodd;fill:rgb(11.372549%,11.372549%,10.588235%);fill-opacity:1;" d="M 121.726562 17.132812 C 123.675781 17.132812 125.621094 17.132812 127.566406 17.132812 C 127.488281 23.269531 127.574219 29.398438 127.816406 35.523438 C 129.0625 38.554688 131.257812 39.640625 134.410156 38.78125 C 135.992188 38.085938 136.96875 36.886719 137.328125 35.1875 C 137.570312 29.175781 137.65625 23.15625 137.578125 17.132812 C 139.472656 17.132812 141.363281 17.132812 143.253906 17.132812 C 143.28125 23.375 143.253906 29.617188 143.167969 35.855469 C 142.632812 40.128906 140.324219 42.945312 136.246094 44.296875 C 131.839844 45.546875 127.917969 44.679688 124.480469 41.707031 C 122.84375 39.855469 121.953125 37.679688 121.8125 35.1875 C 121.726562 29.171875 121.699219 23.152344 121.726562 17.132812 Z M 121.726562 17.132812 "/>
</g>
<mask id="mask8">
  <g filter="url(#alpha)">
<rect x="0" y="0" width="281" height="56" style="fill:rgb(0%,0%,0%);fill-opacity:0.972549;stroke:none;"/>
  </g>
</mask>
<clipPath id="clip9">
  <rect x="0" y="0" width="281" height="56"/>
</clipPath>
<g id="surface29" clip-path="url(#clip9)">
<path style=" stroke:none;fill-rule:evenodd;fill:rgb(10.980392%,10.980392%,10.588235%);fill-opacity:1;" d="M 153.933594 17.132812 C 160.828125 17.132812 167.726562 17.132812 174.625 17.132812 C 174.625 19.027344 174.625 20.921875 174.625 22.816406 C 172.121094 22.816406 169.617188 22.816406 167.113281 22.816406 C 167.113281 29.949219 167.113281 37.082031 167.113281 44.214844 C 165.222656 44.214844 163.332031 44.214844 161.441406 44.214844 C 161.441406 37.082031 161.441406 29.949219 161.441406 22.816406 C 158.9375 22.816406 156.4375 22.816406 153.933594 22.816406 C 153.933594 20.921875 153.933594 19.027344 153.933594 17.132812 Z M 153.933594 17.132812 "/>
</g>
<mask id="mask9">
  <g filter="url(#alpha)">
<rect x="0" y="0" width="281" height="56" style="fill:rgb(0%,0%,0%);fill-opacity:0.980392;stroke:none;"/>
  </g>
</mask>
<clipPath id="clip10">
  <rect x="0" y="0" width="281" height="56"/>
</clipPath>
<g id="surface32" clip-path="url(#clip10)">
<path style=" stroke:none;fill-rule:evenodd;fill:rgb(11.372549%,11.372549%,10.588235%);fill-opacity:1;" d="M 221.179688 17.132812 C 226.191406 17.0625 231.195312 17.144531 236.195312 17.386719 C 239.46875 18.15625 241.445312 20.191406 242.121094 23.488281 C 242.917969 27.625 241.554688 30.773438 238.03125 32.929688 C 239.621094 36.648438 241.234375 40.351562 242.871094 44.046875 C 240.703125 44.269531 238.53125 44.269531 236.363281 44.046875 C 234.09375 38.675781 231.925781 33.273438 229.855469 27.832031 C 231.46875 27.859375 233.082031 27.832031 234.695312 27.75 C 236.578125 26.980469 237.054688 25.671875 236.113281 23.820312 C 235.585938 23.292969 234.945312 22.984375 234.195312 22.902344 C 231.75 22.816406 229.300781 22.789062 226.851562 22.816406 C 226.851562 29.949219 226.851562 37.082031 226.851562 44.214844 C 224.960938 44.214844 223.070312 44.214844 221.179688 44.214844 C 221.179688 35.1875 221.179688 26.160156 221.179688 17.132812 Z M 221.179688 17.132812 "/>
</g>
<mask id="mask10">
  <g filter="url(#alpha)">
<rect x="0" y="0" width="281" height="56" style="fill:rgb(0%,0%,0%);fill-opacity:0.996078;stroke:none;"/>
  </g>
</mask>
<clipPath id="clip11">
  <rect x="0" y="0" width="281" height="56"/>
</clipPath>
<g id="surface35" clip-path="url(#clip11)">
<path style=" stroke:none;fill-rule:evenodd;fill:rgb(89.411765%,9.411765%,25.490196%);fill-opacity:1;" d="M 32.621094 22.316406 C 40.828125 21.871094 47.085938 25.101562 51.394531 32.011719 C 54.566406 38.117188 54.34375 44.078125 50.726562 49.898438 C 47.707031 54.015625 43.675781 55.714844 38.628906 54.996094 C 37.105469 54.5 35.769531 53.691406 34.625 52.574219 C 31.78125 55.222656 28.5 55.917969 24.78125 54.664062 C 19.753906 52.46875 16.777344 48.652344 15.851562 43.210938 C 15.09375 35.515625 17.902344 29.523438 24.277344 25.242188 C 26.871094 23.679688 29.652344 22.703125 32.621094 22.316406 Z M 32.621094 22.316406 "/>
</g>
</defs>
<g id="surface1">
<use xlink:href="#surface5" mask="url(#mask0)"/>
<use xlink:href="#surface8" mask="url(#mask1)"/>
<use xlink:href="#surface11" mask="url(#mask2)"/>
<use xlink:href="#surface14" mask="url(#mask3)"/>
<use xlink:href="#surface17" mask="url(#mask4)"/>
<use xlink:href="#surface20" mask="url(#mask5)"/>
<use xlink:href="#surface23" mask="url(#mask6)"/>
<use xlink:href="#surface26" mask="url(#mask7)"/>
<use xlink:href="#surface29" mask="url(#mask8)"/>
<use xlink:href="#surface32" mask="url(#mask9)"/>
<use xlink:href="#surface35" mask="url(#mask10)"/>
</g>
</svg>
