<?xml version="1.0" encoding="UTF-8"?>
<svg xmlns="http://www.w3.org/2000/svg" xmlns:xlink="http://www.w3.org/1999/xlink" width="280px" height="56px" viewBox="0 0 279 56" version="1.1">
<defs>
<filter id="alpha" filterUnits="objectBoundingBox" x="0%" y="0%" width="100%" height="100%">
  <feColorMatrix type="matrix" in="SourceGraphic" values="0 0 0 0 1 0 0 0 0 1 0 0 0 0 1 0 0 0 1 0"/>
</filter>
<mask id="mask0">
  <g filter="url(#alpha)">
<rect x="0" y="0" width="279" height="56" style="fill:rgb(0%,0%,0%);fill-opacity:0.988235;stroke:none;"/>
  </g>
</mask>
<clipPath id="clip1">
  <rect x="0" y="0" width="279" height="56"/>
</clipPath>
<g id="surface5" clip-path="url(#clip1)">
<path style=" stroke:none;fill-rule:evenodd;fill:rgb(89.411765%,9.411765%,25.490196%);fill-opacity:1;" d="M 21.558594 3.40625 C 25.589844 3.1875 28.1875 5.003906 29.351562 8.855469 C 29.808594 13.316406 27.867188 16.066406 23.527344 17.101562 C 19.550781 17.347656 17.003906 15.554688 15.886719 11.730469 C 15.382812 7.28125 17.273438 4.507812 21.558594 3.40625 Z M 21.558594 3.40625 "/>
</g>
<mask id="mask1">
  <g filter="url(#alpha)">
<rect x="0" y="0" width="279" height="56" style="fill:rgb(0%,0%,0%);fill-opacity:0.988235;stroke:none;"/>
  </g>
</mask>
<clipPath id="clip2">
  <rect x="0" y="0" width="279" height="56"/>
</clipPath>
<g id="surface8" clip-path="url(#clip2)">
<path style=" stroke:none;fill-rule:evenodd;fill:rgb(89.411765%,9.411765%,25.490196%);fill-opacity:1;" d="M 39.113281 3.40625 C 44.65625 3.429688 47.253906 6.203125 46.902344 11.730469 C 45.453125 16.152344 42.453125 17.839844 37.902344 16.800781 C 34.003906 14.980469 32.617188 11.976562 33.742188 7.792969 C 34.796875 5.398438 36.585938 3.9375 39.113281 3.40625 Z M 39.113281 3.40625 "/>
</g>
<mask id="mask2">
  <g filter="url(#alpha)">
<rect x="0" y="0" width="279" height="56" style="fill:rgb(0%,0%,0%);fill-opacity:0.988235;stroke:none;"/>
  </g>
</mask>
<clipPath id="clip3">
  <rect x="0" y="0" width="279" height="56"/>
</clipPath>
<g id="surface11" clip-path="url(#clip3)">
<path style=" stroke:none;fill-rule:evenodd;fill:rgb(89.411765%,9.411765%,25.490196%);fill-opacity:1;" d="M 6.429688 12.183594 C 10.046875 12 12.546875 13.5625 13.917969 16.875 C 14.789062 20.121094 13.90625 22.769531 11.273438 24.820312 C 8.476562 26.40625 5.753906 26.304688 3.101562 24.519531 C 0.863281 22.546875 0.0820312 20.101562 0.757812 17.179688 C 1.691406 14.398438 3.582031 12.734375 6.429688 12.183594 Z M 6.429688 12.183594 "/>
</g>
<mask id="mask3">
  <g filter="url(#alpha)">
<rect x="0" y="0" width="279" height="56" style="fill:rgb(0%,0%,0%);fill-opacity:0.988235;stroke:none;"/>
  </g>
</mask>
<clipPath id="clip4">
  <rect x="0" y="0" width="279" height="56"/>
</clipPath>
<g id="surface14" clip-path="url(#clip4)">
<path style=" stroke:none;fill-rule:evenodd;fill:rgb(89.411765%,9.411765%,25.490196%);fill-opacity:1;" d="M 54.394531 12.183594 C 58.546875 12.027344 61.144531 13.945312 62.183594 17.933594 C 62.574219 21.21875 61.339844 23.664062 58.476562 25.277344 C 54.785156 26.683594 51.78125 25.800781 49.476562 22.628906 C 48.042969 19.828125 48.246094 17.152344 50.082031 14.605469 C 51.273438 13.339844 52.710938 12.535156 54.394531 12.183594 Z M 54.394531 12.183594 "/>
</g>
<mask id="mask4">
  <g filter="url(#alpha)">
<rect x="0" y="0" width="279" height="56" style="fill:rgb(0%,0%,0%);fill-opacity:0.980392;stroke:none;"/>
  </g>
</mask>
<clipPath id="clip5">
  <rect x="0" y="0" width="279" height="56"/>
</clipPath>
<g id="surface17" clip-path="url(#clip5)">
<path style=" stroke:none;fill-rule:evenodd;fill:rgb(11.372549%,11.372549%,10.588235%);fill-opacity:1;" d="M 176.796875 17.480469 C 182.953125 17.214844 187.363281 19.839844 190.035156 25.351562 C 192.0625 31.289062 190.726562 36.308594 186.023438 40.410156 C 180.523438 44.054688 175.128906 43.902344 169.835938 39.957031 C 165.90625 36.214844 164.617188 31.699219 165.976562 26.410156 C 167.839844 21.292969 171.445312 18.316406 176.796875 17.480469 Z M 177.097656 22.628906 C 181.527344 22.433594 184.378906 24.449219 185.648438 28.679688 C 186.171875 32.75 184.585938 35.648438 180.882812 37.382812 C 176.941406 38.523438 173.835938 37.390625 171.574219 33.976562 C 169.707031 29.847656 170.589844 26.441406 174.222656 23.761719 C 175.148438 23.246094 176.105469 22.867188 177.097656 22.628906 Z M 177.097656 22.628906 "/>
</g>
<mask id="mask5">
  <g filter="url(#alpha)">
<rect x="0" y="0" width="279" height="56" style="fill:rgb(0%,0%,0%);fill-opacity:0.980392;stroke:none;"/>
  </g>
</mask>
<clipPath id="clip6">
  <rect x="0" y="0" width="279" height="56"/>
</clipPath>
<g id="surface20" clip-path="url(#clip6)">
<path style=" stroke:none;fill-rule:evenodd;fill:rgb(11.372549%,11.372549%,10.588235%);fill-opacity:1;" d="M 240.191406 17.480469 C 246.347656 17.214844 250.757812 19.839844 253.429688 25.351562 C 255.539062 31.785156 253.898438 37.003906 248.511719 41.015625 C 243.1875 43.976562 238.09375 43.625 233.230469 39.957031 C 229.277344 36.21875 227.992188 31.703125 229.375 26.410156 C 231.234375 21.292969 234.839844 18.316406 240.191406 17.480469 Z M 240.492188 22.628906 C 244.628906 22.402344 247.425781 24.21875 248.890625 28.074219 C 249.753906 32.375 248.214844 35.480469 244.277344 37.382812 C 240.335938 38.523438 237.234375 37.390625 234.972656 33.976562 C 233.105469 29.847656 233.984375 26.441406 237.617188 23.761719 C 238.542969 23.246094 239.5 22.867188 240.492188 22.628906 Z M 240.492188 22.628906 "/>
</g>
<mask id="mask6">
  <g filter="url(#alpha)">
<rect x="0" y="0" width="279" height="56" style="fill:rgb(0%,0%,0%);fill-opacity:0.980392;stroke:none;"/>
  </g>
</mask>
<clipPath id="clip7">
  <rect x="0" y="0" width="279" height="56"/>
</clipPath>
<g id="surface23" clip-path="url(#clip7)">
<path style=" stroke:none;fill-rule:evenodd;fill:rgb(11.372549%,11.372549%,10.588235%);fill-opacity:1;" d="M 88.285156 17.933594 C 89.953125 17.886719 91.617188 17.933594 93.277344 18.085938 C 96.355469 26.160156 99.429688 34.230469 102.507812 42.300781 C 100.589844 42.503906 98.675781 42.503906 96.757812 42.300781 C 94.765625 36.804688 92.773438 31.304688 90.78125 25.804688 C 88.734375 31.289062 86.71875 36.785156 84.730469 42.300781 C 82.847656 42.476562 80.957031 42.503906 79.054688 42.378906 C 82.148438 34.234375 85.222656 26.085938 88.285156 17.933594 Z M 88.285156 17.933594 "/>
</g>
<mask id="mask7">
  <g filter="url(#alpha)">
<rect x="0" y="0" width="279" height="56" style="fill:rgb(0%,0%,0%);fill-opacity:0.980392;stroke:none;"/>
  </g>
</mask>
<clipPath id="clip8">
  <rect x="0" y="0" width="279" height="56"/>
</clipPath>
<g id="surface26" clip-path="url(#clip8)">
<path style=" stroke:none;fill-rule:evenodd;fill:rgb(11.372549%,11.372549%,10.588235%);fill-opacity:1;" d="M 110.375 17.933594 C 112.140625 17.933594 113.90625 17.933594 115.671875 17.933594 C 115.597656 23.492188 115.675781 29.039062 115.898438 34.582031 C 117.023438 37.328125 119.015625 38.3125 121.875 37.535156 C 123.308594 36.90625 124.191406 35.820312 124.519531 34.28125 C 124.742188 28.835938 124.816406 23.386719 124.75 17.933594 C 126.460938 17.933594 128.175781 17.933594 129.890625 17.933594 C 129.917969 23.585938 129.890625 29.234375 129.816406 34.886719 C 129.328125 38.753906 127.234375 41.304688 123.539062 42.53125 C 119.542969 43.660156 115.988281 42.875 112.871094 40.183594 C 111.386719 38.507812 110.578125 36.539062 110.449219 34.28125 C 110.375 28.832031 110.347656 23.382812 110.375 17.933594 Z M 110.375 17.933594 "/>
</g>
<mask id="mask8">
  <g filter="url(#alpha)">
<rect x="0" y="0" width="279" height="56" style="fill:rgb(0%,0%,0%);fill-opacity:0.972549;stroke:none;"/>
  </g>
</mask>
<clipPath id="clip9">
  <rect x="0" y="0" width="279" height="56"/>
</clipPath>
<g id="surface29" clip-path="url(#clip9)">
<path style=" stroke:none;fill-rule:evenodd;fill:rgb(10.980392%,10.980392%,10.588235%);fill-opacity:1;" d="M 139.574219 17.933594 C 145.828125 17.933594 152.082031 17.933594 158.335938 17.933594 C 158.335938 19.652344 158.335938 21.367188 158.335938 23.082031 C 156.066406 23.082031 153.796875 23.082031 151.527344 23.082031 C 151.527344 29.539062 151.527344 35.996094 151.527344 42.453125 C 149.8125 42.453125 148.097656 42.453125 146.382812 42.453125 C 146.382812 35.996094 146.382812 29.539062 146.382812 23.082031 C 144.113281 23.082031 141.84375 23.082031 139.574219 23.082031 C 139.574219 21.367188 139.574219 19.652344 139.574219 17.933594 Z M 139.574219 17.933594 "/>
</g>
<mask id="mask9">
  <g filter="url(#alpha)">
<rect x="0" y="0" width="279" height="56" style="fill:rgb(0%,0%,0%);fill-opacity:0.980392;stroke:none;"/>
  </g>
</mask>
<clipPath id="clip10">
  <rect x="0" y="0" width="279" height="56"/>
</clipPath>
<g id="surface32" clip-path="url(#clip10)">
<path style=" stroke:none;fill-rule:evenodd;fill:rgb(11.372549%,11.372549%,10.588235%);fill-opacity:1;" d="M 200.550781 17.933594 C 205.09375 17.871094 209.632812 17.945312 214.167969 18.164062 C 217.132812 18.859375 218.925781 20.703125 219.539062 23.6875 C 220.261719 27.433594 219.023438 30.28125 215.832031 32.238281 C 217.273438 35.601562 218.738281 38.957031 220.21875 42.300781 C 218.253906 42.503906 216.285156 42.503906 214.320312 42.300781 C 212.261719 37.441406 210.292969 32.546875 208.417969 27.621094 C 209.882812 27.648438 211.34375 27.621094 212.804688 27.546875 C 214.515625 26.847656 214.945312 25.664062 214.089844 23.988281 C 213.613281 23.511719 213.035156 23.230469 212.351562 23.15625 C 210.132812 23.082031 207.914062 23.054688 205.695312 23.082031 C 205.695312 29.539062 205.695312 35.996094 205.695312 42.453125 C 203.980469 42.453125 202.265625 42.453125 200.550781 42.453125 C 200.550781 34.28125 200.550781 26.109375 200.550781 17.933594 Z M 200.550781 17.933594 "/>
</g>
<mask id="mask10">
  <g filter="url(#alpha)">
<rect x="0" y="0" width="279" height="56" style="fill:rgb(0%,0%,0%);fill-opacity:0.996078;stroke:none;"/>
  </g>
</mask>
<clipPath id="clip11">
  <rect x="0" y="0" width="279" height="56"/>
</clipPath>
<g id="surface35" clip-path="url(#clip11)">
<path style=" stroke:none;fill-rule:evenodd;fill:rgb(89.411765%,9.411765%,25.490196%);fill-opacity:1;" d="M 29.578125 22.628906 C 37.019531 22.222656 42.691406 25.148438 46.601562 31.40625 C 49.476562 36.933594 49.273438 42.332031 45.996094 47.601562 C 43.257812 51.328125 39.601562 52.867188 35.027344 52.214844 C 33.644531 51.765625 32.433594 51.035156 31.394531 50.023438 C 28.816406 52.417969 25.839844 53.050781 22.46875 51.914062 C 17.914062 49.925781 15.214844 46.472656 14.375 41.546875 C 13.683594 34.574219 16.230469 29.152344 22.015625 25.277344 C 24.367188 23.859375 26.886719 22.976562 29.578125 22.628906 Z M 29.578125 22.628906 "/>
</g>
</defs>
<g id="surface1">
<use xlink:href="#surface5" mask="url(#mask0)"/>
<use xlink:href="#surface8" mask="url(#mask1)"/>
<use xlink:href="#surface11" mask="url(#mask2)"/>
<use xlink:href="#surface14" mask="url(#mask3)"/>
<use xlink:href="#surface17" mask="url(#mask4)"/>
<use xlink:href="#surface20" mask="url(#mask5)"/>
<use xlink:href="#surface23" mask="url(#mask6)"/>
<use xlink:href="#surface26" mask="url(#mask7)"/>
<use xlink:href="#surface29" mask="url(#mask8)"/>
<use xlink:href="#surface32" mask="url(#mask9)"/>
<use xlink:href="#surface35" mask="url(#mask10)"/>
</g>
</svg>
