<?xml version="1.0" encoding="UTF-8"?>
<!DOCTYPE svg PUBLIC "-//W3C//DTD SVG 1.1//EN" "http://www.w3.org/Graphics/SVG/1.1/DTD/svg11.dtd">
<svg xmlns="http://www.w3.org/2000/svg" version="1.1" width="280px" height="91px" style="shape-rendering:geometricPrecision; text-rendering:geometricPrecision; image-rendering:optimizeQuality; fill-rule:evenodd; clip-rule:evenodd" xmlns:xlink="http://www.w3.org/1999/xlink">
<g><path style="opacity:0.959" fill="#e61842" d="M 49.5,31.5 C 47.8333,32.5 46.5,33.8333 45.5,35.5C 43.0971,35.552 40.7638,35.2186 38.5,34.5C 38.5,33.8333 38.1667,33.5 37.5,33.5C 37.5,32.8333 37.1667,32.5 36.5,32.5C 36.6716,31.5084 36.3382,30.8417 35.5,30.5C 35.2182,25.45 37.5516,22.45 42.5,21.5C 47.9828,22.6469 50.3161,25.9802 49.5,31.5 Z"/></g>
<g><path style="opacity:0.968" fill="#e71842" d="M 64.5,33.5 C 63.8333,33.5 63.5,33.8333 63.5,34.5C 62.5084,34.3284 61.8417,34.6618 61.5,35.5C 52.4852,35.3768 50.1519,31.3768 54.5,23.5C 58.5816,20.6862 62.0816,21.3528 65,25.5C 65.6015,28.2205 65.4349,30.8872 64.5,33.5 Z"/></g>
<g><path style="opacity:0.012" fill="#f20044" d="M 69.5,30.5 C 68.5041,30.4142 67.6708,30.7476 67,31.5C 66.3333,29.5 66.3333,27.5 67,25.5C 67.3345,27.5029 68.1679,29.1696 69.5,30.5 Z"/></g>
<g><path style="opacity:0.004" fill="#fb0330" d="M 35.5,30.5 C 35.5,31.1667 35.5,31.8333 35.5,32.5C 35.1667,32.5 34.8333,32.5 34.5,32.5C 34.5,31.8333 34.1667,31.5 33.5,31.5C 33.5,30.8333 33.1667,30.5 32.5,30.5C 33.0899,29.234 33.5899,27.9007 34,26.5C 34.21,28.0581 34.71,29.3915 35.5,30.5 Z"/></g>
<g><path style="opacity:0.027" fill="#e7183a" d="M 49.5,33.5 C 49.5,32.8333 49.5,32.1667 49.5,31.5C 50.3091,29.7078 50.8091,27.7078 51,25.5C 51.1667,26.6667 51.3333,27.8333 51.5,29C 51.6932,31.0081 51.0265,32.5081 49.5,33.5 Z"/></g>
<g><path style="opacity:0.967" fill="#e71842" d="M 78.5,32.5 C 78.5,33.1667 78.8333,33.5 79.5,33.5C 79.5,35.8333 79.5,38.1667 79.5,40.5C 78.8333,40.5 78.5,40.8333 78.5,41.5C 77.8333,41.5 77.5,41.8333 77.5,42.5C 76.5084,42.3284 75.8417,42.6618 75.5,43.5C 65.997,42.6913 63.997,38.358 69.5,30.5C 72.9269,29.0836 75.9269,29.7503 78.5,32.5 Z"/></g>
<g><path style="opacity:0.965" fill="#e71842" d="M 32.5,30.5 C 33.1667,30.5 33.5,30.8333 33.5,31.5C 34.1667,31.5 34.5,31.8333 34.5,32.5C 34.3284,33.4916 34.6618,34.1583 35.5,34.5C 35.3611,41.1411 32.0278,43.9745 25.5,43C 23.9297,41.6032 22.5964,40.1032 21.5,38.5C 21.8298,31.1751 25.4964,28.5084 32.5,30.5 Z"/></g>
<g><path style="opacity:0.016" fill="#c11723" d="M 80.5,33.5 C 80.1667,33.5 79.8333,33.5 79.5,33.5C 78.8333,33.5 78.5,33.1667 78.5,32.5C 79.3013,30.2071 79.968,30.5404 80.5,33.5 Z"/></g>
<g><path style="opacity:0.004" fill="#fe0000" d="M 49.5,33.5 C 48.8333,34.1667 48.8333,34.1667 49.5,33.5 Z"/></g>
<g><path style="opacity:0.012" fill="#000000" d="M 123.5,34.5 C 124.946,33.3871 126.613,33.2204 128.5,34C 126.866,34.4935 125.199,34.6602 123.5,34.5 Z"/></g>
<g><path style="opacity:0.011" fill="#000000" d="M 183.5,34.5 C 182.508,34.3284 181.842,34.6618 181.5,35.5C 179.621,35.6068 179.288,35.1068 180.5,34C 181.749,33.2599 182.749,33.4265 183.5,34.5 Z"/></g>
<g><path style="opacity:0.004" fill="#fe0000" d="M 48.5,34.5 C 47.8333,35.1667 47.8333,35.1667 48.5,34.5 Z"/></g>
<g><path style="opacity:0.016" fill="#f40846" d="M 64.5,33.5 C 65.6291,35.6282 65.7958,37.9615 65,40.5C 64.8019,38.6183 64.3019,36.9516 63.5,35.5C 63.5,35.1667 63.5,34.8333 63.5,34.5C 64.1667,34.5 64.5,34.1667 64.5,33.5 Z"/></g>
<g><path style="opacity:0.02" fill="#f1ff4d" d="M 80.5,33.5 C 81.8333,35.8333 81.8333,38.1667 80.5,40.5C 80.5,38.1667 80.5,35.8333 80.5,33.5 Z"/></g>
<g><path style="opacity:0.004" fill="#000000" d="M 169.5,35.5 C 168.833,34.1667 168.833,34.1667 169.5,35.5 Z"/></g>
<g><path style="opacity:0.829" fill="#1d1d1b" d="M 183.5,34.5 C 194.521,34.8539 199.521,40.5205 198.5,51.5C 197.662,51.8417 197.328,52.5084 197.5,53.5C 196.833,53.5 196.5,53.8333 196.5,54.5C 195.833,54.5 195.5,54.8333 195.5,55.5C 194.833,55.5 194.5,55.8333 194.5,56.5C 193.833,56.5 193.5,56.8333 193.5,57.5C 192.833,57.5 192.5,57.8333 192.5,58.5C 191.209,58.2627 190.209,58.596 189.5,59.5C 184.266,59.9805 179.932,58.3139 176.5,54.5C 176.5,53.8333 176.167,53.5 175.5,53.5C 173.928,48.658 174.262,43.9913 176.5,39.5C 177.167,39.5 177.5,39.1667 177.5,38.5C 178.167,38.5 178.5,38.1667 178.5,37.5C 179.71,37.0679 180.71,36.4013 181.5,35.5C 182.492,35.6716 183.158,35.3382 183.5,34.5 Z M 181.5,50.5 C 180.751,49.469 180.085,48.3024 179.5,47C 180.085,45.6976 180.751,44.531 181.5,43.5C 181.596,47.3107 182.262,47.3107 183.5,43.5C 187.48,41.5679 189.813,42.7345 190.5,47C 190.441,48.4357 190.108,49.769 189.5,51C 185.564,52.4612 183.064,51.2946 182,47.5C 181.517,48.448 181.351,49.448 181.5,50.5 Z"/></g>
<g><path style="opacity:0.833" fill="#1d1d1b" d="M 256.5,52.5 C 255.662,52.8417 255.328,53.5084 255.5,54.5C 254.833,54.5 254.5,54.8333 254.5,55.5C 253.833,55.5 253.5,55.8333 253.5,56.5C 252.833,56.5 252.5,56.8333 252.5,57.5C 251.508,57.3284 250.842,57.6618 250.5,58.5C 249.508,58.3284 248.842,58.6618 248.5,59.5C 239.2,60.3552 233.866,56.1885 232.5,47C 235.151,35.6886 241.818,32.3553 252.5,37C 257.01,41.3597 258.343,46.5264 256.5,52.5 Z M 242.5,42.5 C 244.167,42.5 245.833,42.5 247.5,42.5C 247.833,43.5 248.5,44.1667 249.5,44.5C 249.5,46.1667 249.5,47.8333 249.5,49.5C 248.5,49.8333 247.833,50.5 247.5,51.5C 245.833,51.5 244.167,51.5 242.5,51.5C 242.167,50.5 241.5,49.8333 240.5,49.5C 240.5,47.8333 240.5,46.1667 240.5,44.5C 241.5,44.1667 242.167,43.5 242.5,42.5 Z"/></g>
<g><path style="opacity:0.008" fill="#d4fe48" d="M 20.5,38.5 C 19.4017,37.3991 19.235,36.0657 20,34.5C 20.49,35.7932 20.6567,37.1266 20.5,38.5 Z"/></g>
<g><path style="opacity:0.016" fill="#fe003f" d="M 45.5,35.5 C 46.8333,36.1667 46.8333,36.1667 45.5,35.5 Z"/></g>
<g><path style="opacity:0.004" fill="#e9ff1f" d="M 61.5,36.5 C 61.5,36.1667 61.5,35.8333 61.5,35.5C 62.1667,35.5 62.8333,35.5 63.5,35.5C 63.1583,36.3382 62.4916,36.6716 61.5,36.5 Z"/></g>
<g><path style="opacity:0.837" fill="#1d1d1a" d="M 116.5,58.5 C 114.5,58.5 112.5,58.5 110.5,58.5C 110.204,56.597 109.537,54.9303 108.5,53.5C 108.509,51.6916 108.009,50.0249 107,48.5C 106.623,49.9423 105.79,50.9423 104.5,51.5C 105.35,49.5056 105.85,47.5056 106,45.5C 104.337,47.1579 103.504,49.1579 103.5,51.5C 102.596,52.209 102.263,53.209 102.5,54.5C 101.596,55.209 101.263,56.209 101.5,57.5C 99.3206,58.1032 97.154,58.7699 95,59.5C 96.6972,52.0705 99.0306,44.7372 102,37.5C 105.459,34.6489 108.125,35.3156 110,39.5C 112.474,45.7566 114.641,52.0899 116.5,58.5 Z M 104.5,51.5 C 104.167,51.5 103.833,51.5 103.5,51.5C 103.504,49.1579 104.337,47.1579 106,45.5C 105.85,47.5056 105.35,49.5056 104.5,51.5 Z"/></g>
<g><path style="opacity:0.799" fill="#1d1d1b" d="M 130.5,52.5 C 131.833,53.8333 133.167,53.8333 134.5,52.5C 135.117,52.3893 135.617,52.056 136,51.5C 136.499,46.1771 136.666,40.8437 136.5,35.5C 138.5,35.5 140.5,35.5 142.5,35.5C 142.5,41.1667 142.5,46.8333 142.5,52.5C 141.596,53.209 141.263,54.209 141.5,55.5C 140.833,55.5 140.5,55.8333 140.5,56.5C 134.978,60.8258 129.811,60.4924 125,55.5C 123.58,48.9504 123.08,42.2837 123.5,35.5C 125.5,35.5 127.5,35.5 129.5,35.5C 129.178,41.358 129.511,47.0247 130.5,52.5 Z"/></g>
<g><path style="opacity:0.008" fill="#090909" d="M 134.5,52.5 C 133.167,52.5 131.833,52.5 130.5,52.5C 130.334,46.8236 130.501,41.1569 131,35.5C 131.499,40.8229 131.666,46.1563 131.5,51.5C 132.791,51.2627 133.791,51.596 134.5,52.5 Z"/></g>
<g><path style="opacity:0.015" fill="#000000" d="M 143.5,52.5 C 143.334,46.8236 143.501,41.1569 144,35.5C 144.818,41.3487 144.652,47.0154 143.5,52.5 Z"/></g>
<g><path style="opacity:0.014" fill="#000000" d="M 148.5,35.5 C 149.613,36.9464 149.78,38.6131 149,40.5C 148.506,38.8659 148.34,37.1992 148.5,35.5 Z"/></g>
<g><path style="opacity:0.802" fill="#1a1a18" d="M 168.5,35.5 C 168.5,37.5 168.5,39.5 168.5,41.5C 163.206,41.6822 163.206,42.1822 168.5,43C 167.207,43.49 165.873,43.6567 164.5,43.5C 164.666,48.5111 164.499,53.5111 164,58.5C 163.167,34.5092 162.667,34.5092 162.5,58.5C 160.5,58.5 158.5,58.5 156.5,58.5C 156.333,34.5092 155.833,34.5092 155,58.5C 154.501,53.5111 154.334,48.5111 154.5,43.5C 149.206,43.3178 149.206,42.8178 154.5,42C 153.207,41.51 151.873,41.3433 150.5,41.5C 150.5,39.5 150.5,37.5 150.5,35.5C 156.5,35.5 162.5,35.5 168.5,35.5 Z"/></g>
<g><path style="opacity:0.81" fill="#1d1d1a" d="M 225.5,45.5 C 224.662,45.8417 224.328,46.5084 224.5,47.5C 223.527,47.9867 222.527,48.4867 221.5,49C 222.895,52.3884 224.562,55.5551 226.5,58.5C 226.44,59.0431 226.107,59.3764 225.5,59.5C 223.137,58.8298 220.804,58.1632 218.5,57.5C 218.672,56.5084 218.338,55.8417 217.5,55.5C 217.598,53.4471 216.931,51.7804 215.5,50.5C 215.737,49.209 215.404,48.209 214.5,47.5C 213.94,45.1992 213.44,42.8659 213,40.5C 212.501,46.4908 212.334,52.4908 212.5,58.5C 210.5,58.5 208.5,58.5 206.5,58.5C 206.5,50.8333 206.5,43.1667 206.5,35.5C 211.511,35.3341 216.511,35.5007 221.5,36C 224.62,38.4077 225.953,41.5743 225.5,45.5 Z"/></g>
<g><path style="opacity:0.02" fill="#df0039" d="M 35.5,32.5 C 35.8333,32.5 36.1667,32.5 36.5,32.5C 37.1667,32.5 37.5,32.8333 37.5,33.5C 38.1667,33.5 38.5,33.8333 38.5,34.5C 37.8519,36.0858 37.3519,37.7525 37,39.5C 36.8019,37.6183 36.3019,35.9516 35.5,34.5C 35.5,33.8333 35.5,33.1667 35.5,32.5 Z"/></g>
<g><path style="opacity:0.02" fill="#da0035" d="M 45.5,36.5 C 44.0536,37.6129 42.3869,37.7796 40.5,37C 42.1341,36.5065 43.8008,36.3398 45.5,36.5 Z"/></g>
<g><path style="opacity:0.016" fill="#f6ff3b" d="M 61.5,36.5 C 60.0536,37.6129 58.3869,37.7796 56.5,37C 58.1341,36.5065 59.8008,36.3398 61.5,36.5 Z"/></g>
<g><path style="opacity:0.006" fill="#000000" d="M 178.5,37.5 C 177.833,37.5 177.5,37.8333 177.5,38.5C 176.833,38.5 176.5,38.8333 176.5,39.5C 175.475,39.1034 175.308,38.4368 176,37.5C 176.977,36.2264 177.811,36.2264 178.5,37.5 Z"/></g>
<g><path style="opacity:0.015" fill="#060500" d="M 204.5,35.5 C 205.656,42.9887 205.822,50.6554 205,58.5C 204.5,50.8406 204.334,43.1739 204.5,35.5 Z"/></g>
<g><path style="opacity:0.02" fill="#27261f" d="M 169.5,35.5 C 170.613,36.9464 170.78,38.6131 170,40.5C 169.506,38.8659 169.34,37.1992 169.5,35.5 Z"/></g>
<g><path style="opacity:0.012" fill="#ff0063" d="M 20.5,38.5 C 20.8333,38.5 21.1667,38.5 21.5,38.5C 21.1667,41.1667 20.8333,41.1667 20.5,38.5 Z"/></g>
<g><path style="opacity:0.981" fill="#e51842" d="M 64.5,46.5 C 64.5,47.1667 64.8333,47.5 65.5,47.5C 66.9193,51.0148 67.586,54.6814 67.5,58.5C 66.596,59.209 66.2627,60.209 66.5,61.5C 65.8333,61.5 65.5,61.8333 65.5,62.5C 64.6618,62.8417 64.3284,63.5084 64.5,64.5C 63.8333,64.5 63.5,64.8333 63.5,65.5C 62.8333,65.5 62.5,65.8333 62.5,66.5C 61.5084,66.3284 60.8417,66.6618 60.5,67.5C 59.209,67.2627 58.209,67.596 57.5,68.5C 55.2133,68.2761 53.0466,67.6094 51,66.5C 49.5405,66.8082 48.3739,67.4749 47.5,68.5C 42.2334,68.2044 38.2334,65.8711 35.5,61.5C 33.1663,46.6673 39.4996,39.5006 54.5,40C 58.5516,41.2463 61.8849,43.413 64.5,46.5 Z"/></g>
<g><path style="opacity:0.012" fill="#fe0054" d="M 79.5,40.5 C 79.8333,40.5 80.1667,40.5 80.5,40.5C 80.3147,41.1701 79.9813,41.1701 79.5,40.5 Z"/></g>
<g><path style="opacity:0.009" fill="#000000" d="M 226.5,45.5 C 226.34,43.8008 226.506,42.1341 227,40.5C 227.78,42.3869 227.613,44.0536 226.5,45.5 Z"/></g>
<g><path style="opacity:0.016" fill="#be003f" d="M 78.5,41.5 C 78.8333,41.5 79.1667,41.5 79.5,41.5C 79.3147,42.1701 78.9813,42.1701 78.5,41.5 Z"/></g>
<g><path style="opacity:0.016" fill="#be003f" d="M 77.5,42.5 C 77.8333,42.5 78.1667,42.5 78.5,42.5C 78.3147,43.1701 77.9813,43.1701 77.5,42.5 Z"/></g>
<g><path style="opacity:0.013" fill="#000000" d="M 199.5,51.5 C 199.335,48.4816 199.502,45.4816 200,42.5C 200.805,45.6965 200.638,48.6965 199.5,51.5 Z"/></g>
<g><path style="opacity:0.012" fill="#000000" d="M 240.5,42.5 C 241.167,42.5 241.833,42.5 242.5,42.5C 242.167,43.5 241.5,44.1667 240.5,44.5C 240.5,43.8333 240.5,43.1667 240.5,42.5 Z"/></g>
<g><path style="opacity:0.013" fill="#000000" d="M 247.5,42.5 C 248.167,42.5 248.833,42.5 249.5,42.5C 249.5,43.1667 249.5,43.8333 249.5,44.5C 248.5,44.1667 247.833,43.5 247.5,42.5 Z"/></g>
<g><path style="opacity:0.012" fill="#9cff3a" d="M 75.5,44.5 C 75.5,44.1667 75.5,43.8333 75.5,43.5C 76.1667,43.5 76.8333,43.5 77.5,43.5C 77.1583,44.3382 76.4916,44.6716 75.5,44.5 Z"/></g>
<g><path style="opacity:0.016" fill="#ffff42" d="M 25.5,45.5 C 27.2884,44.3775 29.2884,44.2109 31.5,45C 29.5273,45.4955 27.5273,45.6621 25.5,45.5 Z"/></g>
<g><path style="opacity:0.016" fill="#ff0047" d="M 75.5,44.5 C 74.0536,45.6129 72.3869,45.7796 70.5,45C 72.1341,44.5065 73.8008,44.3398 75.5,44.5 Z"/></g>
<g><path style="opacity:0.004" fill="#f5fe2e" d="M 65.5,47.5 C 64.8333,47.5 64.5,47.1667 64.5,46.5C 64.7467,44.0248 65.4134,44.0248 66.5,46.5C 66.3764,47.1067 66.0431,47.44 65.5,47.5 Z"/></g>
<g><path style="opacity:0.004" fill="#171501" d="M 225.5,45.5 C 225.833,45.5 226.167,45.5 226.5,45.5C 226.672,46.4916 226.338,47.1583 225.5,47.5C 225.5,46.8333 225.5,46.1667 225.5,45.5 Z"/></g>
<g><path style="opacity:0.012" fill="#000000" d="M 224.5,47.5 C 224.833,47.5 225.167,47.5 225.5,47.5C 225.315,48.1701 224.981,48.1701 224.5,47.5 Z"/></g>
<g><path style="opacity:0.015" fill="#0b0b0b" d="M 214.5,47.5 C 214.263,48.791 214.596,49.791 215.5,50.5C 214.895,53.1267 214.395,55.7934 214,58.5C 213.19,54.6425 213.357,50.9758 214.5,47.5 Z"/></g>
<g><path style="opacity:0.02" fill="#1e1c02" d="M 240.5,49.5 C 241.5,49.8333 242.167,50.5 242.5,51.5C 241.833,51.5 241.167,51.5 240.5,51.5C 240.5,50.8333 240.5,50.1667 240.5,49.5 Z"/></g>
<g><path style="opacity:0.02" fill="#1c1c1c" d="M 249.5,49.5 C 249.5,50.1667 249.5,50.8333 249.5,51.5C 248.833,51.5 248.167,51.5 247.5,51.5C 247.833,50.5 248.5,49.8333 249.5,49.5 Z"/></g>
<g><path style="opacity:0.012" fill="#000000" d="M 198.5,51.5 C 198.833,51.5 199.167,51.5 199.5,51.5C 199.672,52.4916 199.338,53.1583 198.5,53.5C 198.5,52.8333 198.5,52.1667 198.5,51.5 Z"/></g>
<g><path style="opacity:0.008" fill="#171501" d="M 107.5,53.5 C 106.475,53.1034 106.308,52.4368 107,51.5C 107.464,52.0944 107.631,52.7611 107.5,53.5 Z"/></g>
<g><path style="opacity:0.008" fill="#000000" d="M 142.5,52.5 C 142.833,52.5 143.167,52.5 143.5,52.5C 143.737,53.791 143.404,54.791 142.5,55.5C 142.5,54.5 142.5,53.5 142.5,52.5 Z"/></g>
<g><path style="opacity:0.012" fill="#000000" d="M 256.5,52.5 C 257.833,53.1667 257.833,53.8333 256.5,54.5C 256.5,53.8333 256.5,53.1667 256.5,52.5 Z"/></g>
<g><path style="opacity:0.008" fill="#000000" d="M 175.5,53.5 C 176.167,53.5 176.5,53.8333 176.5,54.5C 176.253,56.9752 175.587,56.9752 174.5,54.5C 174.624,53.8933 174.957,53.56 175.5,53.5 Z"/></g>
<g><path style="opacity:0.02" fill="#323300" d="M 197.5,53.5 C 197.833,53.5 198.167,53.5 198.5,53.5C 198.315,54.1701 197.981,54.1701 197.5,53.5 Z"/></g>
<g><path style="opacity:0.008" fill="#f5fc48" d="M 68.5,58.5 C 68.3379,56.4727 68.5045,54.4727 69,52.5C 69.7891,54.7116 69.6225,56.7116 68.5,58.5 Z"/></g>
<g><path style="opacity:0.012" fill="#000000" d="M 102.5,54.5 C 103.833,55.5 103.833,56.5 102.5,57.5C 102.5,56.5 102.5,55.5 102.5,54.5 Z"/></g>
<g><path style="opacity:0.02" fill="#1e1c02" d="M 107.5,53.5 C 107.833,53.5 108.167,53.5 108.5,53.5C 108.167,57.5 107.833,57.5 107.5,53.5 Z"/></g>
<g><path style="opacity:0.007" fill="#000000" d="M 196.5,54.5 C 196.833,54.5 197.167,54.5 197.5,54.5C 197.167,56.8333 195.833,58.1667 193.5,58.5C 193.5,58.1667 193.5,57.8333 193.5,57.5C 194.167,57.5 194.5,57.1667 194.5,56.5C 195.167,56.5 195.5,56.1667 195.5,55.5C 196.167,55.5 196.5,55.1667 196.5,54.5 Z"/></g>
<g><path style="opacity:0.016" fill="#000000" d="M 255.5,54.5 C 255.833,54.5 256.167,54.5 256.5,54.5C 256.315,55.1701 255.981,55.1701 255.5,54.5 Z"/></g>
<g><path style="opacity:0.012" fill="#000000" d="M 141.5,55.5 C 141.833,55.5 142.167,55.5 142.5,55.5C 142.315,56.1701 141.981,56.1701 141.5,55.5 Z"/></g>
<g><path style="opacity:0.02" fill="#323300" d="M 254.5,55.5 C 254.833,55.5 255.167,55.5 255.5,55.5C 255.315,56.1701 254.981,56.1701 254.5,55.5 Z"/></g>
<g><path style="opacity:0.012" fill="#000000" d="M 92.5,56.5 C 93.525,56.8966 93.6917,57.5632 93,58.5C 92.5357,57.9056 92.369,57.2389 92.5,56.5 Z"/></g>
<g><path style="opacity:0.02" fill="#1e1c02" d="M 117.5,58.5 C 117.351,57.448 117.517,56.448 118,55.5C 118.74,56.7494 118.573,57.7494 117.5,58.5 Z"/></g>
<g><path style="opacity:0.016" fill="#000000" d="M 140.5,56.5 C 140.833,56.5 141.167,56.5 141.5,56.5C 141.315,57.1701 140.981,57.1701 140.5,56.5 Z"/></g>
<g><path style="opacity:0.012" fill="#151515" d="M 217.5,55.5 C 217.5,56.1667 217.5,56.8333 217.5,57.5C 216.167,56.8333 216.167,56.1667 217.5,55.5 Z"/></g>
<g><path style="opacity:0.014" fill="#000000" d="M 226.5,58.5 C 226.369,57.7611 226.536,57.0944 227,56.5C 227.692,57.4368 227.525,58.1034 226.5,58.5 Z"/></g>
<g><path style="opacity:0.02" fill="#323300" d="M 253.5,56.5 C 253.833,56.5 254.167,56.5 254.5,56.5C 254.315,57.1701 253.981,57.1701 253.5,56.5 Z"/></g>
<g><path style="opacity:0.012" fill="#000000" d="M 101.5,57.5 C 101.833,57.5 102.167,57.5 102.5,57.5C 102.315,58.1701 101.981,58.1701 101.5,57.5 Z"/></g>
<g><path style="opacity:0.008" fill="#000000" d="M 217.5,57.5 C 217.833,57.5 218.167,57.5 218.5,57.5C 218.315,58.1701 217.981,58.1701 217.5,57.5 Z"/></g>
<g><path style="opacity:0.016" fill="#000000" d="M 252.5,57.5 C 252.833,57.5 253.167,57.5 253.5,57.5C 253.315,58.1701 252.981,58.1701 252.5,57.5 Z"/></g>
<g><path style="opacity:0.004" fill="#000000" d="M 110.5,58.5 C 110.5,58.8333 110.5,59.1667 110.5,59.5C 109.83,59.0187 109.83,58.6853 110.5,58.5 Z"/></g>
<g><path style="opacity:0.004" fill="#000000" d="M 116.5,58.5 C 116.833,58.5 117.167,58.5 117.5,58.5C 117.315,59.1701 116.981,59.1701 116.5,58.5 Z"/></g>
<g><path style="opacity:0.016" fill="#000000" d="M 192.5,58.5 C 192.833,58.5 193.167,58.5 193.5,58.5C 193.315,59.1701 192.981,59.1701 192.5,58.5 Z"/></g>
<g><path style="opacity:0.01" fill="#000000" d="M 250.5,59.5 C 250.5,59.1667 250.5,58.8333 250.5,58.5C 251.167,58.5 251.833,58.5 252.5,58.5C 252.158,59.3382 251.492,59.6716 250.5,59.5 Z"/></g>
<g><path style="opacity:0.016" fill="#ef0034" d="M 67.5,58.5 C 67.8333,58.5 68.1667,58.5 68.5,58.5C 68.7373,59.791 68.404,60.791 67.5,61.5C 67.5,60.5 67.5,59.5 67.5,58.5 Z"/></g>
<g><path style="opacity:0.004" fill="#000000" d="M 99.5,59.5 C 100.833,60.1667 100.833,60.1667 99.5,59.5 Z"/></g>
<g><path style="opacity:0.004" fill="#000000" d="M 110.5,59.5 C 111.167,59.5 111.5,59.8333 111.5,60.5C 111.167,60.1667 110.833,59.8333 110.5,59.5 Z"/></g>
<g><path style="opacity:0.009" fill="#000000" d="M 189.5,60.5 C 189.5,60.1667 189.5,59.8333 189.5,59.5C 190.5,59.5 191.5,59.5 192.5,59.5C 191.791,60.404 190.791,60.7373 189.5,60.5 Z"/></g>
<g><path style="opacity:0.004" fill="#000000" d="M 220.5,60.5 C 219.833,59.1667 219.833,59.1667 220.5,60.5 Z"/></g>
<g><path style="opacity:0.014" fill="#000000" d="M 248.5,60.5 C 248.5,60.1667 248.5,59.8333 248.5,59.5C 249.167,59.5 249.833,59.5 250.5,59.5C 250.158,60.3382 249.492,60.6716 248.5,60.5 Z"/></g>
<g><path style="opacity:0.004" fill="#000000" d="M 95.5,60.5 C 96.8333,61.1667 96.8333,61.1667 95.5,60.5 Z"/></g>
<g><path style="opacity:0.004" fill="#000000" d="M 99.5,60.5 C 98.8333,61.1667 98.8333,61.1667 99.5,60.5 Z"/></g>
<g><path style="opacity:0.004" fill="#000000" d="M 111.5,60.5 C 112.833,61.1667 112.833,61.1667 111.5,60.5 Z"/></g>
<g><path style="opacity:0.011" fill="#000000" d="M 129.5,61.5 C 131.288,60.3775 133.288,60.2109 135.5,61C 133.527,61.4955 131.527,61.6621 129.5,61.5 Z"/></g>
<g><path style="opacity:0.004" fill="#000000" d="M 157.5,60.5 C 158.833,61.1667 158.833,61.1667 157.5,60.5 Z"/></g>
<g><path style="opacity:0.004" fill="#000000" d="M 160.5,60.5 C 161.833,61.1667 161.833,61.1667 160.5,60.5 Z"/></g>
<g><path style="opacity:0.011" fill="#000000" d="M 189.5,60.5 C 187.712,61.6225 185.712,61.7891 183.5,61C 185.473,60.5045 187.473,60.3379 189.5,60.5 Z"/></g>
<g><path style="opacity:0.004" fill="#000000" d="M 207.5,60.5 C 208.833,61.1667 208.833,61.1667 207.5,60.5 Z"/></g>
<g><path style="opacity:0.004" fill="#000000" d="M 210.5,60.5 C 211.833,61.1667 211.833,61.1667 210.5,60.5 Z"/></g>
<g><path style="opacity:0.004" fill="#000000" d="M 220.5,60.5 C 221.833,61.1667 221.833,61.1667 220.5,60.5 Z"/></g>
<g><path style="opacity:0.004" fill="#000000" d="M 223.5,60.5 C 224.833,61.1667 224.833,61.1667 223.5,60.5 Z"/></g>
<g><path style="opacity:0.01" fill="#000000" d="M 248.5,60.5 C 246.372,61.6291 244.039,61.7958 241.5,61C 243.81,60.5034 246.143,60.3367 248.5,60.5 Z"/></g>
<g><path style="opacity:0.016" fill="#fe003f" d="M 66.5,61.5 C 66.8333,61.5 67.1667,61.5 67.5,61.5C 67.3147,62.1701 66.9813,62.1701 66.5,61.5 Z"/></g>
<g><path style="opacity:0.012" fill="#c7fe40" d="M 35.5,61.5 C 35.631,62.2389 35.4643,62.9056 35,63.5C 34.3083,62.5632 34.475,61.8966 35.5,61.5 Z"/></g>
<g><path style="opacity:0.008" fill="#fe007f" d="M 65.5,62.5 C 65.8333,62.5 66.1667,62.5 66.5,62.5C 66.6716,63.4916 66.3382,64.1583 65.5,64.5C 65.5,63.8333 65.5,63.1667 65.5,62.5 Z"/></g>
<g><path style="opacity:0.012" fill="#fe0054" d="M 64.5,64.5 C 64.8333,64.5 65.1667,64.5 65.5,64.5C 65.3147,65.1701 64.9813,65.1701 64.5,64.5 Z"/></g>
<g><path style="opacity:0.016" fill="#be003f" d="M 63.5,65.5 C 63.8333,65.5 64.1667,65.5 64.5,65.5C 64.3147,66.1701 63.9813,66.1701 63.5,65.5 Z"/></g>
<g><path style="opacity:0.012" fill="#fe0054" d="M 62.5,66.5 C 62.8333,66.5 63.1667,66.5 63.5,66.5C 63.3147,67.1701 62.9813,67.1701 62.5,66.5 Z"/></g>
<g><path style="opacity:0.004" fill="#ff001d" d="M 60.5,68.5 C 60.5,68.1667 60.5,67.8333 60.5,67.5C 61.1667,67.5 61.8333,67.5 62.5,67.5C 62.1583,68.3382 61.4916,68.6716 60.5,68.5 Z"/></g>
<g><path style="opacity:0.008" fill="#ffff6a" d="M 47.5,69.5 C 47.5,69.1667 47.5,68.8333 47.5,68.5C 50.1667,68.8333 50.1667,69.1667 47.5,69.5 Z"/></g>
<g><path style="opacity:0.016" fill="#fffe44" d="M 57.5,69.5 C 57.5,69.1667 57.5,68.8333 57.5,68.5C 58.5,68.5 59.5,68.5 60.5,68.5C 59.791,69.404 58.791,69.7373 57.5,69.5 Z"/></g>
<g><path style="opacity:0.004" fill="#931b0b" d="M 47.5,69.5 C 46.3991,70.5983 45.0657,70.765 43.5,70C 44.7932,69.51 46.1266,69.3433 47.5,69.5 Z"/></g>
<g><path style="opacity:0.004" fill="#fe0000" d="M 57.5,69.5 C 56.7494,70.5735 55.7494,70.7401 54.5,70C 55.448,69.5172 56.448,69.3505 57.5,69.5 Z"/></g>
</svg>
