<?xml version="1.0" encoding="UTF-8"?>
<svg xmlns="http://www.w3.org/2000/svg" xmlns:xlink="http://www.w3.org/1999/xlink" width="230px" height="46px" viewBox="0 0 231 46" version="1.1">
<defs>
<filter id="alpha" filterUnits="objectBoundingBox" x="0%" y="0%" width="100%" height="100%">
  <feColorMatrix type="matrix" in="SourceGraphic" values="0 0 0 0 1 0 0 0 0 1 0 0 0 0 1 0 0 0 1 0"/>
</filter>
<mask id="mask0">
  <g filter="url(#alpha)">
<rect x="0" y="0" width="231" height="46" style="fill:rgb(0%,0%,0%);fill-opacity:0.988235;stroke:none;"/>
  </g>
</mask>
<clipPath id="clip1">
  <rect x="0" y="0" width="232" height="46"/>
</clipPath>
<g id="surface5" clip-path="url(#clip1)">
<path style=" stroke:none;fill-rule:evenodd;fill:rgb(89.411765%,9.411765%,25.490196%);fill-opacity:1;" d="M 19.546875 0.890625 C 23.203125 0.695312 25.554688 2.34375 26.613281 5.835938 C 27.027344 9.886719 25.265625 12.378906 21.332031 13.320312 C 17.722656 13.539062 15.414062 11.914062 14.402344 8.445312 C 13.945312 4.410156 15.660156 1.890625 19.546875 0.890625 Z M 19.546875 0.890625 "/>
</g>
<mask id="mask1">
  <g filter="url(#alpha)">
<rect x="0" y="0" width="231" height="46" style="fill:rgb(0%,0%,0%);fill-opacity:0.988235;stroke:none;"/>
  </g>
</mask>
<clipPath id="clip2">
  <rect x="0" y="0" width="232" height="46"/>
</clipPath>
<g id="surface8" clip-path="url(#clip2)">
<path style=" stroke:none;fill-rule:evenodd;fill:rgb(89.411765%,9.411765%,25.490196%);fill-opacity:1;" d="M 35.460938 0.890625 C 40.488281 0.914062 42.84375 3.429688 42.523438 8.445312 C 41.210938 12.457031 38.488281 13.988281 34.363281 13.042969 C 30.828125 11.394531 29.570312 8.671875 30.589844 4.875 C 31.546875 2.703125 33.167969 1.375 35.460938 0.890625 Z M 35.460938 0.890625 "/>
</g>
<mask id="mask2">
  <g filter="url(#alpha)">
<rect x="0" y="0" width="231" height="46" style="fill:rgb(0%,0%,0%);fill-opacity:0.988235;stroke:none;"/>
  </g>
</mask>
<clipPath id="clip3">
  <rect x="0" y="0" width="232" height="46"/>
</clipPath>
<g id="surface11" clip-path="url(#clip3)">
<path style=" stroke:none;fill-rule:evenodd;fill:rgb(89.411765%,9.411765%,25.490196%);fill-opacity:1;" d="M 5.828125 8.855469 C 9.109375 8.691406 11.375 10.109375 12.621094 13.113281 C 13.40625 16.058594 12.605469 18.460938 10.21875 20.324219 C 7.6875 21.761719 5.214844 21.667969 2.8125 20.046875 C 0.785156 18.257812 0.0742188 16.039062 0.6875 13.386719 C 1.535156 10.867188 3.25 9.355469 5.828125 8.855469 Z M 5.828125 8.855469 "/>
</g>
<mask id="mask3">
  <g filter="url(#alpha)">
<rect x="0" y="0" width="231" height="46" style="fill:rgb(0%,0%,0%);fill-opacity:0.988235;stroke:none;"/>
  </g>
</mask>
<clipPath id="clip4">
  <rect x="0" y="0" width="232" height="46"/>
</clipPath>
<g id="surface14" clip-path="url(#clip4)">
<path style=" stroke:none;fill-rule:evenodd;fill:rgb(89.411765%,9.411765%,25.490196%);fill-opacity:1;" d="M 49.3125 8.855469 C 53.082031 8.714844 55.4375 10.453125 56.378906 14.074219 C 56.730469 17.054688 55.609375 19.273438 53.015625 20.734375 C 49.667969 22.011719 46.949219 21.210938 44.855469 18.332031 C 43.558594 15.792969 43.742188 13.367188 45.40625 11.054688 C 46.488281 9.90625 47.789062 9.171875 49.3125 8.855469 Z M 49.3125 8.855469 "/>
</g>
<mask id="mask4">
  <g filter="url(#alpha)">
<rect x="0" y="0" width="231" height="46" style="fill:rgb(0%,0%,0%);fill-opacity:0.980392;stroke:none;"/>
  </g>
</mask>
<clipPath id="clip5">
  <rect x="0" y="0" width="232" height="46"/>
</clipPath>
<g id="surface17" clip-path="url(#clip5)">
<path style=" stroke:none;fill-rule:evenodd;fill:rgb(11.372549%,11.372549%,10.588235%);fill-opacity:1;" d="M 160.289062 13.664062 C 165.867188 13.421875 169.867188 15.800781 172.289062 20.804688 C 174.128906 26.191406 172.917969 30.746094 168.65625 34.464844 C 163.664062 37.769531 158.773438 37.632812 153.976562 34.054688 C 150.414062 30.65625 149.246094 26.5625 150.480469 21.765625 C 152.167969 17.121094 155.4375 14.417969 160.289062 13.664062 Z M 160.5625 18.332031 C 164.578125 18.15625 167.164062 19.984375 168.3125 23.824219 C 168.789062 27.515625 167.347656 30.144531 163.992188 31.71875 C 160.417969 32.753906 157.605469 31.726562 155.554688 28.628906 C 153.863281 24.882812 154.660156 21.792969 157.957031 19.359375 C 158.792969 18.890625 159.660156 18.546875 160.5625 18.332031 Z M 160.5625 18.332031 "/>
</g>
<mask id="mask5">
  <g filter="url(#alpha)">
<rect x="0" y="0" width="231" height="46" style="fill:rgb(0%,0%,0%);fill-opacity:0.980392;stroke:none;"/>
  </g>
</mask>
<clipPath id="clip6">
  <rect x="0" y="0" width="232" height="46"/>
</clipPath>
<g id="surface20" clip-path="url(#clip6)">
<path style=" stroke:none;fill-rule:evenodd;fill:rgb(11.372549%,11.372549%,10.588235%);fill-opacity:1;" d="M 217.761719 13.664062 C 223.34375 13.421875 227.34375 15.800781 229.765625 20.804688 C 231.675781 26.636719 230.1875 31.375 225.308594 35.015625 C 220.480469 37.703125 215.863281 37.382812 211.453125 34.054688 C 207.871094 30.660156 206.703125 26.566406 207.953125 21.765625 C 209.644531 17.121094 212.914062 14.417969 217.761719 13.664062 Z M 218.039062 18.332031 C 221.785156 18.125 224.324219 19.773438 225.648438 23.273438 C 226.433594 27.175781 225.039062 29.992188 221.464844 31.71875 C 217.894531 32.753906 215.082031 31.726562 213.03125 28.628906 C 211.335938 24.882812 212.136719 21.792969 215.429688 19.359375 C 216.265625 18.890625 217.136719 18.546875 218.039062 18.332031 Z M 218.039062 18.332031 "/>
</g>
<mask id="mask6">
  <g filter="url(#alpha)">
<rect x="0" y="0" width="231" height="46" style="fill:rgb(0%,0%,0%);fill-opacity:0.980392;stroke:none;"/>
  </g>
</mask>
<clipPath id="clip7">
  <rect x="0" y="0" width="232" height="46"/>
</clipPath>
<g id="surface23" clip-path="url(#clip7)">
<path style=" stroke:none;fill-rule:evenodd;fill:rgb(11.372549%,11.372549%,10.588235%);fill-opacity:1;" d="M 80.039062 14.074219 C 81.550781 14.027344 83.0625 14.074219 84.566406 14.210938 C 87.355469 21.535156 90.144531 28.859375 92.933594 36.183594 C 91.199219 36.363281 89.460938 36.363281 87.722656 36.183594 C 85.917969 31.191406 84.109375 26.203125 82.304688 21.214844 C 80.449219 26.1875 78.621094 31.179688 76.816406 36.183594 C 75.113281 36.339844 73.398438 36.363281 71.671875 36.25 C 74.476562 28.863281 77.265625 21.46875 80.039062 14.074219 Z M 80.039062 14.074219 "/>
</g>
<mask id="mask7">
  <g filter="url(#alpha)">
<rect x="0" y="0" width="231" height="46" style="fill:rgb(0%,0%,0%);fill-opacity:0.980392;stroke:none;"/>
  </g>
</mask>
<clipPath id="clip8">
  <rect x="0" y="0" width="232" height="46"/>
</clipPath>
<g id="surface26" clip-path="url(#clip8)">
<path style=" stroke:none;fill-rule:evenodd;fill:rgb(11.372549%,11.372549%,10.588235%);fill-opacity:1;" d="M 100.066406 14.074219 C 101.667969 14.074219 103.269531 14.074219 104.867188 14.074219 C 104.804688 19.113281 104.875 24.148438 105.074219 29.179688 C 106.097656 31.671875 107.902344 32.5625 110.492188 31.855469 C 111.796875 31.285156 112.59375 30.300781 112.894531 28.90625 C 113.09375 23.964844 113.160156 19.023438 113.097656 14.074219 C 114.652344 14.074219 116.207031 14.074219 117.761719 14.074219 C 117.785156 19.203125 117.761719 24.328125 117.695312 29.453125 C 117.25 32.964844 115.355469 35.273438 112.003906 36.386719 C 108.382812 37.410156 105.160156 36.703125 102.332031 34.257812 C 100.984375 32.738281 100.253906 30.953125 100.136719 28.90625 C 100.066406 23.960938 100.046875 19.019531 100.066406 14.074219 Z M 100.066406 14.074219 "/>
</g>
<mask id="mask8">
  <g filter="url(#alpha)">
<rect x="0" y="0" width="231" height="46" style="fill:rgb(0%,0%,0%);fill-opacity:0.972549;stroke:none;"/>
  </g>
</mask>
<clipPath id="clip9">
  <rect x="0" y="0" width="232" height="46"/>
</clipPath>
<g id="surface29" clip-path="url(#clip9)">
<path style=" stroke:none;fill-rule:evenodd;fill:rgb(10.980392%,10.980392%,10.588235%);fill-opacity:1;" d="M 126.542969 14.074219 C 132.210938 14.074219 137.882812 14.074219 143.550781 14.074219 C 143.550781 15.628906 143.550781 17.1875 143.550781 18.742188 C 141.496094 18.742188 139.4375 18.742188 137.378906 18.742188 C 137.378906 24.601562 137.378906 30.460938 137.378906 36.320312 C 135.824219 36.320312 134.269531 36.320312 132.714844 36.320312 C 132.714844 30.460938 132.714844 24.601562 132.714844 18.742188 C 130.65625 18.742188 128.601562 18.742188 126.542969 18.742188 C 126.542969 17.1875 126.542969 15.628906 126.542969 14.074219 Z M 126.542969 14.074219 "/>
</g>
<mask id="mask9">
  <g filter="url(#alpha)">
<rect x="0" y="0" width="231" height="46" style="fill:rgb(0%,0%,0%);fill-opacity:0.980392;stroke:none;"/>
  </g>
</mask>
<clipPath id="clip10">
  <rect x="0" y="0" width="232" height="46"/>
</clipPath>
<g id="surface32" clip-path="url(#clip10)">
<path style=" stroke:none;fill-rule:evenodd;fill:rgb(11.372549%,11.372549%,10.588235%);fill-opacity:1;" d="M 181.824219 14.074219 C 185.941406 14.015625 190.058594 14.082031 194.167969 14.28125 C 196.859375 14.914062 198.484375 16.585938 199.039062 19.292969 C 199.691406 22.691406 198.570312 25.277344 195.679688 27.050781 C 196.984375 30.101562 198.3125 33.144531 199.65625 36.183594 C 197.871094 36.363281 196.089844 36.363281 194.304688 36.183594 C 192.441406 31.769531 190.65625 27.332031 188.957031 22.863281 C 190.28125 22.886719 191.609375 22.863281 192.933594 22.792969 C 194.484375 22.160156 194.871094 21.085938 194.101562 19.566406 C 193.667969 19.132812 193.140625 18.878906 192.523438 18.8125 C 190.511719 18.742188 188.5 18.71875 186.488281 18.742188 C 186.488281 24.601562 186.488281 30.460938 186.488281 36.320312 C 184.933594 36.320312 183.378906 36.320312 181.824219 36.320312 C 181.824219 28.90625 181.824219 21.488281 181.824219 14.074219 Z M 181.824219 14.074219 "/>
</g>
<mask id="mask10">
  <g filter="url(#alpha)">
<rect x="0" y="0" width="231" height="46" style="fill:rgb(0%,0%,0%);fill-opacity:0.996078;stroke:none;"/>
  </g>
</mask>
<clipPath id="clip11">
  <rect x="0" y="0" width="232" height="46"/>
</clipPath>
<g id="surface35" clip-path="url(#clip11)">
<path style=" stroke:none;fill-rule:evenodd;fill:rgb(89.411765%,9.411765%,25.490196%);fill-opacity:1;" d="M 26.816406 18.332031 C 33.5625 17.964844 38.707031 20.621094 42.25 26.296875 C 44.855469 31.308594 44.675781 36.207031 41.699219 40.988281 C 39.21875 44.371094 35.902344 45.765625 31.753906 45.175781 C 30.5 44.765625 29.402344 44.101562 28.464844 43.183594 C 26.125 45.359375 23.425781 45.933594 20.371094 44.902344 C 16.238281 43.097656 13.792969 39.964844 13.03125 35.496094 C 12.40625 29.171875 14.714844 24.25 19.957031 20.734375 C 22.089844 19.449219 24.378906 18.648438 26.816406 18.332031 Z M 26.816406 18.332031 "/>
</g>
</defs>
<g id="surface1">
<use xlink:href="#surface5" mask="url(#mask0)"/>
<use xlink:href="#surface8" mask="url(#mask1)"/>
<use xlink:href="#surface11" mask="url(#mask2)"/>
<use xlink:href="#surface14" mask="url(#mask3)"/>
<use xlink:href="#surface17" mask="url(#mask4)"/>
<use xlink:href="#surface20" mask="url(#mask5)"/>
<use xlink:href="#surface23" mask="url(#mask6)"/>
<use xlink:href="#surface26" mask="url(#mask7)"/>
<use xlink:href="#surface29" mask="url(#mask8)"/>
<use xlink:href="#surface32" mask="url(#mask9)"/>
<use xlink:href="#surface35" mask="url(#mask10)"/>
</g>
</svg>
